<?xml version="1.0" encoding="iso-8859-1"?>
<!-- Generator: Adobe Illustrator 19.0.0, SVG Export Plug-In . SVG Version: 6.00 Build 0)  -->
<svg version="1.1" id="Capa_1" xmlns="http://www.w3.org/2000/svg" xmlns:xlink="http://www.w3.org/1999/xlink" x="0px" y="0px"
	 viewBox="0 0 472 472" style="enable-background:new 0 0 472 472;" xml:space="preserve">
<path style="fill:#FDBD40;" d="M44,88h320v384H44V88z"/>
<path style="fill:#E9686A;" d="M252,64c-4.418,0-8-3.582-8-8V16h-80v40c0,4.418-3.582,8-8,8s-8-3.582-8-8V8c0-4.418,3.582-8,8-8h96
	c4.418,0,8,3.582,8,8v48C260,60.418,256.418,64,252,64z"/>
<path style="fill:#FCF05A;" d="M76,120h256v320H76V120z"/>
<g>
	<path style="fill:#E9686A;" d="M132,192h-24c-4.418,0-8-3.582-8-8s3.582-8,8-8h24c4.418,0,8,3.582,8,8S136.418,192,132,192z"/>
	<path style="fill:#E9686A;" d="M236,192h-72c-4.418,0-8-3.582-8-8s3.582-8,8-8h72c4.418,0,8,3.582,8,8S240.418,192,236,192z"/>
	<path style="fill:#E9686A;" d="M268,168h32v32h-32V168z"/>
	<path style="fill:#E9686A;" d="M132,256h-24c-4.418,0-8-3.582-8-8s3.582-8,8-8h24c4.418,0,8,3.582,8,8S136.418,256,132,256z"/>
	<path style="fill:#E9686A;" d="M236,256h-72c-4.418,0-8-3.582-8-8s3.582-8,8-8h72c4.418,0,8,3.582,8,8S240.418,256,236,256z"/>
	<path style="fill:#E9686A;" d="M268,232h32v32h-32V232z"/>
	<path style="fill:#E9686A;" d="M132,320h-24c-4.418,0-8-3.582-8-8s3.582-8,8-8h24c4.418,0,8,3.582,8,8S136.418,320,132,320z"/>
	<path style="fill:#E9686A;" d="M236,320h-72c-4.418,0-8-3.582-8-8s3.582-8,8-8h72c4.418,0,8,3.582,8,8S240.418,320,236,320z"/>
	<path style="fill:#E9686A;" d="M268,296h32v32h-32V296z"/>
	<path style="fill:#E9686A;" d="M132,384h-24c-4.418,0-8-3.582-8-8s3.582-8,8-8h24c4.418,0,8,3.582,8,8S136.418,384,132,384z"/>
	<path style="fill:#E9686A;" d="M236,384h-72c-4.418,0-8-3.582-8-8s3.582-8,8-8h72c4.418,0,8,3.582,8,8S240.418,384,236,384z"/>
	<path style="fill:#E9686A;" d="M268,360h32v32h-32V360z"/>
</g>
<path style="fill:#B11E48;" d="M396,296h32v176h-32V296z"/>
<path style="fill:#E9686A;" d="M396,248h32v48h-32V248z"/>
<g>
	<path style="fill:#B11E48;" d="M412,256c-4.418,0-8-3.582-8-8v-24c0-4.418,3.582-8,8-8s8,3.582,8,8v24
		C420,252.418,416.418,256,412,256z"/>
	<path style="fill:#B11E48;" d="M100,56h208v80H100V56z"/>
</g>
<g>
</g>
<g>
</g>
<g>
</g>
<g>
</g>
<g>
</g>
<g>
</g>
<g>
</g>
<g>
</g>
<g>
</g>
<g>
</g>
<g>
</g>
<g>
</g>
<g>
</g>
<g>
</g>
<g>
</g>
</svg>
