<?xml version="1.0" encoding="iso-8859-1"?>
<!-- Generator: Adobe Illustrator 19.0.0, SVG Export Plug-In . SVG Version: 6.00 Build 0)  -->
<svg version="1.1" id="Capa_1" xmlns="http://www.w3.org/2000/svg" xmlns:xlink="http://www.w3.org/1999/xlink" x="0px" y="0px"
	 viewBox="0 0 512 512" style="enable-background:new 0 0 512 512;" xml:space="preserve">
<g>
	<polyline style="fill:#DE4C3C;" points="370.759,202.985 512,202.985 512,255.95 0,255.95 0,202.985 141.241,202.985 	"/>
	<path style="fill:#DE4C3C;" d="M26.483,255.95l47.139,227.84c3.39,16.41,17.849,28.169,34.604,28.16h295.548
		c16.755,0.009,31.214-11.75,34.604-28.16l47.139-227.84H26.483z M141.241,441.33c0,9.754-7.901,17.655-17.655,17.655
		s-17.655-7.901-17.655-17.655V308.916c0-9.754,7.901-17.655,17.655-17.655s17.655,7.901,17.655,17.655V441.33z M229.517,441.33
		c0,9.754-7.901,17.655-17.655,17.655c-9.754,0-17.655-7.901-17.655-17.655V308.916c0-9.754,7.901-17.655,17.655-17.655
		c9.754,0,17.655,7.901,17.655,17.655V441.33z M317.793,441.33c0,9.754-7.901,17.655-17.655,17.655
		c-9.754,0-17.655-7.901-17.655-17.655V308.916c0-9.754,7.901-17.655,17.655-17.655c9.754,0,17.655,7.901,17.655,17.655V441.33z
		 M406.069,441.33c0,9.754-7.901,17.655-17.655,17.655s-17.655-7.901-17.655-17.655V308.916c0-9.754,7.901-17.655,17.655-17.655
		s17.655,7.901,17.655,17.655V441.33z"/>
</g>
<polygon style="fill:#C74436;" points="480.044,282.433 485.517,255.95 26.483,255.95 31.956,282.433 "/>
<g>
	<path style="fill:#4398D1;" d="M254.941,19.901L254.941,19.901c-4.105-14.495-19.182-22.916-33.677-18.812
		c-0.018,0-0.026,0.009-0.044,0.009l-1.766,0.53c-8.969,2.507-16.031,9.437-18.714,18.361L139.034,220.64
		c-1.457,5.014-1.457,10.346,0,15.36l0,0c4.149,14.477,19.218,22.881,33.721,18.803l1.766-0.53
		c8.986-2.481,16.066-9.419,18.714-18.361l61.617-200.651C256.335,30.246,256.371,24.923,254.941,19.901z"/>
	<path style="fill:#4398D1;" d="M257.059,19.901L257.059,19.901c4.105-14.495,19.182-22.916,33.677-18.812
		c0.018,0,0.026,0.009,0.044,0.009l1.766,0.53c8.969,2.507,16.031,9.437,18.714,18.361l61.793,200.739
		c1.457,5.014,1.457,10.346,0,15.36l0,0c-4.149,14.477-19.218,22.881-33.721,18.803l-1.766-0.53
		c-8.987-2.481-16.066-9.419-18.714-18.361L257.148,35.261C255.665,30.246,255.629,24.923,257.059,19.901z"/>
</g>
<g>
</g>
<g>
</g>
<g>
</g>
<g>
</g>
<g>
</g>
<g>
</g>
<g>
</g>
<g>
</g>
<g>
</g>
<g>
</g>
<g>
</g>
<g>
</g>
<g>
</g>
<g>
</g>
<g>
</g>
</svg>
